<svg id="Layer_1" data-name="Layer 1" xmlns="http://www.w3.org/2000/svg" viewBox="0 0 274.27 82.55"><defs><style>.cls-1{fill:#cccd33;}.cls-2{fill:#a21422;}.cls-3{fill:#016736;}.cls-4{fill:#006835;}</style></defs><path class="cls-1" d="M45.18,19.58c-1.24-1.61-12.94-2.74-24.73-.16s-19.39,8-18,9.47c1.22,1.23,12.94,2.74,24.73.16S46.26,21,45.18,19.58Z" transform="translate(-2.31 15.17)"/><path class="cls-2" d="M92.24-15.12c-2.35-.47-12.95,2.7-18.78,9S68.68,7,71.15,7.59c2.83.75,13-2.71,18.81-9S95-14.58,92.24-15.12Z" transform="translate(-2.31 15.17)"/><path class="cls-3" d="M46.88-3.86c-6.34-6.12-17.2-9.47-19.51-8.48-2,.86-2.89,7.55,3.46,13.66S48,10.61,50.35,9.8C53,8.87,53.23,2.25,46.88-3.86Z" transform="translate(-2.31 15.17)"/><path class="cls-4" d="M114.16,15.48l-3.52-.18s-5.12,11.6-8,15.16-15,18-16.31,18.56-1.28,2-3.19,1.07,6.71-22.83,8-25.33a18.43,18.43,0,0,0,1.59-5.71L87.3,16.73H84.1S78.66,25.83,76.42,29,62.36,47.59,58.52,49.37s-3.84.72-3.52-2.67S65.87,22.79,67.47,20.83,71,16.73,71,16.38s-8-3-8-3l-2.4-.09c-1.28.9-18.86,28.9-16.3,36.22,0,0,3.51,5.38,13.75,5.52,6.55.09,16.78-16.5,16.78-16.5a7.37,7.37,0,0,1,0,4.11c-.64,2.32-2.24,6.6,2.56,9.27s11.83,3.94,16,.72S118,25.12,119.27,18.52Z" transform="translate(-2.31 15.17)"/><path class="cls-4" d="M142.29,38.49l-.08.11-.13.19-.3.41-.26.34c-.14.19-.29.39-.47.6l-.33.43c-.11.15-.23.29-.35.44a13.43,13.43,0,0,1-2.26,2.48l-1.33.81-.49.3-.4.25-.61.38-.47.26-1.21.72-.53.3-.79.45-.54.3-1.11.59-.55.29q-.71.36-1.41.69l-.7.32-.22.1-.94.39a12.53,12.53,0,0,1-2.76.79,14.35,14.35,0,0,1-2.08.13,6.83,6.83,0,0,1-1.11-.09,5.49,5.49,0,0,1-.75-.18,3.17,3.17,0,0,1-1-.56,2.75,2.75,0,0,1-.64-.75,3.11,3.11,0,0,1-.26-.6,6,6,0,0,1-.19-.81v-.22h0a1.83,1.83,0,0,1,0-.46,5,5,0,0,1,.36-1.09,7.79,7.79,0,0,1,.44-.86,14.67,14.67,0,0,1,.94-1.43c.13-.19.27-.37.4-.55l.21-.26c.39-.51.78-1,1.09-1.31l.15-.17c.33-.37.55-.59.55-.59.82.17,1.66.32,2.51.44l.43,0,.36.05a21.72,21.72,0,0,0,2.43.14,8.64,8.64,0,0,0,1.62-.15q1.5-.25,2.91-.63c2.14-.62,4.61-1.93,7-5.61a3.83,3.83,0,0,0,.56-3.81c0-.09-.09-.18-.13-.26a3.52,3.52,0,0,0-.56-.74,6.47,6.47,0,0,0-1.66-1.26l-.69-.35a14.25,14.25,0,0,0-1.55-.6c-.56-.18-1.14-.34-1.73-.47-1.31-.3-2.66-.55-4-.75l-.43-.06a7.93,7.93,0,0,0-1.62-.08l-1,.13a15.37,15.37,0,0,0-2,.47,15.68,15.68,0,0,0-3.87,1.74,17.39,17.39,0,0,0-1.57,1.1A20.22,20.22,0,0,0,117,31.93l-.53.58c-.35.4-.71.83-1.06,1.29s-.69.94-1,1.46a33.07,33.07,0,0,0-2,3.5,14.45,14.45,0,0,0-1.09,2.93l-.12.49c-.07.33-.13.65-.18,1-.07.48-.13,1-.16,1.42,0,.31,0,.61,0,.91v.88l0,.43q0,.42.09.81A2.28,2.28,0,0,0,111,48a7.59,7.59,0,0,0,.16.75,2.58,2.58,0,0,0,.09.35,7.69,7.69,0,0,0,.44,1.23l.12.26a4,4,0,0,0,.28.46,3.8,3.8,0,0,0,.29.38,5,5,0,0,0,.52.51,10.17,10.17,0,0,0,1.85,1.2l.33.16c.34.16.71.32,1.09.46l.39.14a20.3,20.3,0,0,0,5.39,1c.59,0,1.18.06,1.78.05s1.28,0,1.92-.08a11.83,11.83,0,0,0,4.23-1.33,21.34,21.34,0,0,0,1.88-1l.47-.26.89-.56.43-.28c.43-.27.83-.55,1.21-.81l.37-.26.69-.48.32-.22a7.46,7.46,0,0,1,1.64-1l.43-.09.16,0,.66-.13,1.35-.26,2.82-.56h0ZM127,33.32c.94-1.25,3.83-2.68,5.43-3,0,0,3.2,1.78-.94,5.53-2.9,2.61-7.35,2.49-7.35,2.49-.34-1.42,1.9-3.74,2.86-5Z" transform="translate(-2.31 15.17)"/><path class="cls-4" d="M169.47,45.27c-2.56-.71,4.48-10.88,7.05-14.27s10.87-16.95,10.87-16.95-6.07-1.24-9.27-.89c0,0-10.31,13-10.87,13.38-1.28.89-9.28-1.43-12.63-.45-4.33,1.26-9.6,6.78-11.19,10.7s-7.06,11.42-5.12,13.92A12.94,12.94,0,0,0,148.54,55c5.12-.36,8.63-5,9.27-5.89,0,0,2.52,3.71,5,4.55,4.16,1.42,9.59-3.57,11.51-4.28s5.12-3.75,5.12-3.75V36.71S172,46,169.47,45.27Zm-8-8.39c-1.6,2-9.91,11.24-13.11,12.31,0,0,1.92-9.81,7.06-14.45s5.75-4.82,8.31-4.46-.67,4.65-2.27,6.61Z" transform="translate(-2.31 15.17)"/><path class="cls-4" d="M271.15,26.54l-.39,0a7,7,0,0,0-1,0c-.59,0-1.09.06-1.53.07a6.82,6.82,0,0,1-.9-.07l-.05.08a8.79,8.79,0,0,1-1.36-.08S251.66,46.73,246.57,49c-1.88-1.92,9.62-16.55,10.51-18.88.94-2.5,1.28-3.21,1.28-3.21s-6.72-1.79-7.83-1.52l-.06.07a4.68,4.68,0,0,0-1.35-.07s-14.87,18.46-12.31,24.88c1.07,2.71,1.88,4.64,8,4.64l.4,0,1,0a9.05,9.05,0,0,0,4.91-2c-.87,3.39-2.94,11.29-3.45,11.85-.64.71,2.55,2.68,5.76,2.68a1.35,1.35,0,0,0,.41-.07c.33,0,.66.06,1,.07,2.56,0,3.52-6.6,4.48-9.1s14.7-27.47,17.26-30A9.22,9.22,0,0,0,271.15,26.54Z" transform="translate(-2.31 15.17)"/><path class="cls-4" d="M237.58,26.54l-.4,0a6.81,6.81,0,0,0-1,0c-.59,0-1.09.06-1.53.07a6.69,6.69,0,0,1-.9-.07l-.06.08a8.66,8.66,0,0,1-1.35-.08S218.08,46.73,213,49c-1.88-1.92,9.62-16.55,10.52-18.88.94-2.5,1.28-3.21,1.28-3.21s-6.72-1.79-7.84-1.52c0,0,0,0,0,.07a4.73,4.73,0,0,0-1.36-.07,110.63,110.63,0,0,0-9,13.16v0s-3.2,4.46-4.16,5-9.91,6.43-14.07,7-5.76-.52-6.07-2.85,4.15-7,4.15-7,4.8,1.07,7.36.54,6.31-.73,9.91-6.25c2.56-3.93-.94-6.42-5.76-7.49s-6.07-.89-6.07-.89c-3.2.36-10.05,1.83-15.19,12.22-2.56,5.17-1.6,10.88,0,12.66s6.23,4,13.27,3.48c4.75-.36,11.19-6.06,12.15-6.24l.85-.17a4.52,4.52,0,0,0,.3,1.77c1.08,2.71,1.88,4.64,8,4.64l.4,0,1,0a9.11,9.11,0,0,0,4.92-2c-.88,3.39-2.95,11.29-3.45,11.85-.64.71,2.54,2.68,5.75,2.68a1.84,1.84,0,0,0,.42-.07c.33,0,.66.06,1,.07,2.56,0,3.52-6.6,4.48-9.1s14.71-27.47,17.27-30A9.37,9.37,0,0,0,237.58,26.54Zm-46.37,6.78c.95-1.25,3.84-2.68,5.44-3,0,0,3.2,1.78-.94,5.53-2.9,2.61-7.36,2.49-7.36,2.49C188,36.89,190.26,34.57,191.21,33.32Z" transform="translate(-2.31 15.17)"/></svg>