<svg id="Layer_1" data-name="Layer 1" xmlns="http://www.w3.org/2000/svg" viewBox="0 0 965 529"><defs><style>.cls-1{fill:#cccd33;}.cls-2{fill:#a21422;}.cls-3{fill:#016736;}.cls-4{fill:#006835;}</style></defs><title>wedeyy-svg Artboard 7</title><path class="cls-1" d="M284.2,241.17c-2.63-6.14-27.52-10.43-52.61-.61s-41.25,30.71-38.23,36.14c2.6,4.67,27.53,10.42,52.61.61S286.5,246.52,284.2,241.17Z"/><path class="cls-2" d="M384.32,108.84c-5-1.79-27.56,10.32-39.95,34.23S334.2,193,339.46,195.46c6,2.87,27.56-10.32,40-34.23S390.18,110.93,384.32,108.84Z"/><path class="cls-3" d="M287.82,151.78c-13.5-23.31-36.6-36.12-41.52-32.31-4.22,3.28-6.13,28.79,7.37,52.09s36.58,35.4,41.53,32.31C300.87,200.34,301.33,175.09,287.82,151.78Z"/><path class="cls-4" d="M430.94,225.55l-7.48-.68s-10.89,44.22-17,57.82-32,68.71-34.69,70.75-2.72,7.48-6.8,4.08,14.28-87.07,17-96.6,3.4-21.76,3.4-21.76l-11.56-8.85H367S355.43,265,350.67,277.25,320.74,348,312.58,354.8s-8.16,2.72-7.48-10.21,23.12-91.15,26.53-98.63,7.48-15.65,7.48-17-17-11.56-17-11.56l-5.1-.34c-2.72,3.4-40.13,110.2-34.69,138.09,0,0,7.48,20.55,29.25,21.08,13.94.34,35.71-62.92,35.71-62.92a49.6,49.6,0,0,1,0,15.65c-1.36,8.84-4.76,25.17,5.44,35.37s25.17,15,34,2.72,52.38-104.76,55.1-129.92Z"/><path class="cls-4" d="M490.8,313.3l-.17.42c-.07.19-.17.42-.28.71s-.39.95-.64,1.56l-.55,1.32c-.29.7-.61,1.47-1,2.27l-.7,1.64c-.24.56-.49,1.12-.74,1.69-1.85,4.24-3.86,8.48-4.81,9.44-.39.39-1.4,1.52-2.83,3.11l-1.05,1.15-.86.95L475.89,339l-1,1c-.82.87-1.69,1.79-2.59,2.72-.36.38-.73.77-1.11,1.15-.55.57-1.12,1.14-1.69,1.71l-1.15,1.15c-.78.76-1.57,1.52-2.36,2.26l-1.18,1.1c-1,.93-2,1.81-3,2.65-.49.42-1,.82-1.47,1.21l-.48.38c-.68.53-1.34,1-2,1.49a18.69,18.69,0,0,1-5.87,3,17.59,17.59,0,0,1-4.42.51,9.51,9.51,0,0,1-2.36-.35,7.54,7.54,0,0,1-1.61-.7,7,7,0,0,1-2.22-2.11,11.22,11.22,0,0,1-1.37-2.89,18.67,18.67,0,0,1-.56-2.26q-.25-1.43-.39-3.09c0-.27,0-.56,0-.85v0c0-.56,0-1.14.09-1.75a30,30,0,0,1,.75-4.17c.27-1.07.59-2.17.94-3.28.59-1.84,1.28-3.69,2-5.46.28-.71.57-1.4.86-2.07.14-.34.29-.67.43-1,.85-1.95,1.68-3.69,2.34-5l.31-.64c.71-1.42,1.17-2.27,1.17-2.27a44.72,44.72,0,0,0,5.33,1.68l.92.22.77.16a24.47,24.47,0,0,0,5.16.55,10.25,10.25,0,0,0,3.46-.56,47.45,47.45,0,0,0,6.18-2.41c4.55-2.38,9.81-7.38,14.91-21.4,2-5.62,2.26-10.46,1.21-14.54-.09-.34-.19-.68-.29-1a17.63,17.63,0,0,0-1.18-2.82,18.92,18.92,0,0,0-3.53-4.78c-.47-.47-1-.92-1.47-1.34a24.71,24.71,0,0,0-3.31-2.3,27.76,27.76,0,0,0-3.68-1.78,64.78,64.78,0,0,0-8.57-2.87l-.92-.21a9.07,9.07,0,0,0-3.43-.32c-.64.12-1.34.29-2.11.51a22.63,22.63,0,0,0-4.27,1.77,30.25,30.25,0,0,0-8.23,6.66,49.34,49.34,0,0,0-3.34,4.2,66.68,66.68,0,0,0-4.53,7.42c-.37.72-.75,1.46-1.13,2.22q-1.12,2.3-2.24,4.91c-.75,1.75-1.48,3.6-2.21,5.58-1.46,3.95-2.88,8.37-4.25,13.32a89.79,89.79,0,0,0-2.31,11.2c-.09.62-.18,1.24-.25,1.86q-.24,1.86-.39,3.69c-.16,1.83-.28,3.64-.34,5.41,0,1.18-.07,2.34-.07,3.48s0,2.26,0,3.36l.06,1.62c.05,1.07.12,2.11.2,3.12,0,.5.08,1,.13,1.49.09,1,.2,1.92.33,2.83.06.45.12.89.19,1.33.27,1.73.58,3.31.94,4.69.09.34.18.68.27,1,.18.64.38,1.23.58,1.77s.41,1,.62,1.45a19.74,19.74,0,0,0,1.12,1.95,24.45,24.45,0,0,0,3.92,4.55c.23.21.46.42.7.62a26.6,26.6,0,0,0,2.32,1.76c.27.18.55.37.84.54a27.34,27.34,0,0,0,11.46,4,29.24,29.24,0,0,0,3.79.19,34.16,34.16,0,0,0,4.08-.31c2.84-.38,6-2.38,9-5.07,1.37-1.2,2.72-2.53,4-3.91l1-1c.65-.71,1.28-1.42,1.9-2.13l.91-1.07c.91-1.06,1.77-2.11,2.58-3.11l.79-1,1.47-1.83.67-.84c1.73-2.16,3-3.64,3.48-3.81l.92-.32.35-.12,1.4-.49,2.88-1,6-2.14h0Zm-32.65-19.73c2-4.76,8.16-10.2,11.56-11.56,0,0,6.81,6.8-2,21.09-6.16,9.95-15.64,9.52-15.64,9.52C451.35,307.18,456.11,298.34,458.15,293.57Z"/><path class="cls-4" d="M548.62,339.15c-5.44-2.72,9.52-41.49,15-54.42s23.12-64.62,23.12-64.62-12.92-4.76-19.72-3.4c0,0-21.93,49.51-23.13,51-2.72,3.4-19.73-5.45-26.87-1.7-9.2,4.81-20.41,25.84-23.81,40.81s-15,43.53-10.88,53.06,13.42,17.37,21.77,16.32c10.88-1.36,18.36-19,19.72-22.44,0,0,5.36,14.15,10.55,17.34,8.84,5.44,20.4-13.6,24.48-16.32,4.31-2.88,10.89-14.29,10.89-14.29v-34S554.06,341.87,548.62,339.15Zm-17-32c-3.4,7.48-21.08,42.85-27.88,46.94,0,0,4.08-37.42,15-55.1s12.24-18.37,17.69-17S535,299.7,531.61,307.18Z"/><path class="cls-4" d="M764.94,267.73l-.84.08a7.43,7.43,0,0,0-2.16-.08c-1.25.13-2.33.21-3.25.26a8.64,8.64,0,0,1-1.92-.26l-.11.29a11.24,11.24,0,0,1-2.89-.29s-30.3,77-41.13,85.59c-4-7.31,20.46-63.09,22.37-72,2-9.52,2.72-12.24,2.72-12.24s-14.29-6.81-16.67-5.79l-.12.27a5.72,5.72,0,0,0-2.88-.27s-31.63,70.41-26.19,94.9c2.29,10.31,4,17.68,17,17.68a6.22,6.22,0,0,0,.85-.07c.68.05,1.39.07,2.15.07,3.73,0,7.66-4.09,10.45-7.78-1.85,12.92-6.26,43.06-7.33,45.2-1.36,2.72,5.41,10.2,12.24,10.2a1.88,1.88,0,0,0,.89-.24,10.83,10.83,0,0,0,2.11.24c5.45,0,7.49-25.17,9.53-34.69s31.29-104.76,36.73-114.28C776.5,274.53,771.06,267.05,764.94,267.73Z"/><path class="cls-4" d="M693.51,267.73l-.84.08a7.42,7.42,0,0,0-2.16-.08c-1.25.13-2.32.21-3.25.26a8.6,8.6,0,0,1-1.91-.26l-.12.29a11.09,11.09,0,0,1-2.88-.29s-30.31,77-41.14,85.59c-4-7.31,20.46-63.09,22.37-72,2-9.52,2.72-12.24,2.72-12.24s-14.28-6.81-16.66-5.79c0,0,0,.1-.12.27a5.72,5.72,0,0,0-2.88-.27,519.11,519.11,0,0,0-19.1,50.19v-.19s-6.8,17-8.84,19.05-21.09,24.49-29.94,26.53-12.24-2-12.92-10.89,8.84-26.53,8.84-26.53,10.21,4.09,15.65,2.05,13.44-2.78,21.09-23.81c5.44-15-2-24.49-12.25-28.57s-12.92-3.4-12.92-3.4c-6.81,1.36-21.38,7-32.31,46.59-5.45,19.73-3.41,41.5,0,48.3s13.26,15.3,28.23,13.26c10.11-1.38,23.8-23.12,25.84-23.8l1.82-.63a30.81,30.81,0,0,0,.63,6.75c2.29,10.31,4,17.68,17,17.68a6,6,0,0,0,.85-.07c.68.05,1.4.07,2.15.07,3.73,0,7.66-4.09,10.46-7.78-1.86,12.92-6.27,43.06-7.34,45.2-1.36,2.72,5.41,10.2,12.25,10.2a1.92,1.92,0,0,0,.89-.24,10.75,10.75,0,0,0,2.11.24c5.44,0,7.48-25.17,9.52-34.69s31.29-104.76,36.74-114.28C705.08,274.53,699.63,267.05,693.51,267.73Zm-98.63,25.84c2-4.76,8.16-10.2,11.56-11.56,0,0,6.8,6.8-2,21.09-6.16,9.95-15.65,9.52-15.65,9.52C588.07,307.18,592.84,298.34,594.88,293.57Z"/></svg>