<svg id="Layer_1" data-name="Layer 1" xmlns="http://www.w3.org/2000/svg" viewBox="0 0 1415.49 556.16"><defs><style>.cls-1{fill:#cccd33;}.cls-2{fill:#a21422;}.cls-3{fill:#016736;}.cls-4{fill:#006835;}</style></defs><path class="cls-1" d="M-1.75,222.08c-6.38-10.85-66.76-18.43-127.63-1.08s-100.07,54.25-92.74,63.84c6.31,8.25,66.78,18.41,127.62,1.08S3.83,231.53-1.75,222.08Z" transform="translate(223 12)"/><path class="cls-2" d="M241.13-11.69C229-14.86,174.27,6.54,144.21,48.78S119.54,137,132.3,141.33c14.56,5.07,66.86-18.23,97-60.47S255.34-8,241.13-11.69Z" transform="translate(223 12)"/><path class="cls-3" d="M7,64.16C-25.72,23-81.76.35-93.7,7.09c-10.23,5.79-14.87,50.85,17.88,92s88.74,62.53,100.75,57.07C38.69,150,39.8,105.34,7,64.16Z" transform="translate(223 12)"/><path class="cls-4" d="M354.22,194.48l-18.14-1.2s-26.42,78.12-41.24,102.14-77.63,121.38-84.16,125-6.6,13.21-16.49,7.21S228.83,273.8,235.43,257s8.24-38.44,8.24-38.44l-28-15.64H199.11S171,264.17,159.49,285.81s-72.6,125-92.4,137-19.79,4.81-18.14-18,56.08-161,64.36-174.23,18.14-27.65,18.14-30-41.24-20.43-41.24-20.43l-12.37-.6c-6.6,6-97.35,194.68-84.16,244,0,0,18.15,36.3,71,37.24,33.82.6,86.63-111.15,86.63-111.15a64.1,64.1,0,0,1,0,27.64c-3.3,15.62-11.55,44.47,13.2,62.49s61.06,26.49,82.48,4.8S374,259.39,380.61,214.94Z" transform="translate(223 12)"/><path class="cls-4" d="M499.44,349.5l-.42.74c-.17.34-.41.74-.68,1.25s-.94,1.68-1.55,2.76l-1.33,2.33c-.71,1.24-1.48,2.6-2.43,4l-1.7,2.9c-.58,1-1.19,2-1.79,3-4.49,7.49-9.37,15-11.67,16.67-.95.69-3.4,2.69-6.87,5.5l-2.54,2-2.09,1.68-3.1,2.54-2.43,1.77c-2,1.53-4.1,3.16-6.28,4.8-.88.67-1.77,1.36-2.7,2-1.33,1-2.71,2-4.1,3l-2.79,2c-1.89,1.35-3.8,2.69-5.72,4l-2.86,1.94q-3.64,2.46-7.28,4.68c-1.19.74-2.43,1.45-3.57,2.14l-1.16.67c-1.65.94-3.25,1.77-4.85,2.63a53.23,53.23,0,0,1-14.24,5.3,58.08,58.08,0,0,1-10.73.9,31.1,31.1,0,0,1-5.72-.61,22.57,22.57,0,0,1-3.91-1.24,15.86,15.86,0,0,1-5.38-3.73,18.27,18.27,0,0,1-3.33-5.1,25.79,25.79,0,0,1-1.35-4,45.43,45.43,0,0,1-.95-5.46v-1.5h0a15,15,0,0,1,.22-3.09,40,40,0,0,1,1.82-7.36c.65-1.9,1.43-3.84,2.28-5.8,1.43-3.25,3.1-6.52,4.85-9.64.68-1.26,1.38-2.48,2.09-3.66.34-.6.7-1.19,1-1.77,2.06-3.44,4.07-6.52,5.68-8.83l.75-1.13c1.72-2.51,2.84-4,2.84-4q6.33,1.77,12.93,3l2.23.38,1.87.29a81.48,81.48,0,0,0,12.51,1,33.53,33.53,0,0,0,8.4-1,144.23,144.23,0,0,0,15-4.26c11-4.2,23.8-13,36.17-37.8,4.85-9.93,5.48-18.48,2.93-25.69-.21-.6-.46-1.2-.7-1.76a27.18,27.18,0,0,0-2.86-5,36.78,36.78,0,0,0-8.57-8.44c-1.14-.83-2.42-1.63-3.56-2.37a64.19,64.19,0,0,0-8-4.06,80.49,80.49,0,0,0-8.93-3.15,201.44,201.44,0,0,0-20.79-5.07l-2.23-.37a30.05,30.05,0,0,0-8.32-.56c-1.55.21-3.25.51-5.12.9A67.23,67.23,0,0,0,408.05,273a73.8,73.8,0,0,0-20,11.76,99.59,99.59,0,0,0-8.11,7.42,118.73,118.73,0,0,0-11,13.11l-2.74,3.92q-2.72,4.06-5.43,8.67c-1.82,3.1-3.59,6.36-5.36,9.86a242,242,0,0,0-10.31,23.53,122.27,122.27,0,0,0-5.61,19.79c-.21,1.09-.43,2.19-.6,3.28-.39,2.19-.71,4.37-.95,6.52-.39,3.24-.68,6.43-.82,9.56,0,2.08-.17,4.13-.17,6.15v5.93l.14,2.87c.12,1.89.29,3.72.49,5.51a19.45,19.45,0,0,0,.31,2.63c.22,1.77.49,3.39.8,5,.15.79.3,1.57.46,2.35a65.13,65.13,0,0,0,2.29,8.28c.21.6.43,1.2.65,1.77a34,34,0,0,0,1.41,3.13,28.85,28.85,0,0,0,1.5,2.56,34.76,34.76,0,0,0,2.72,3.44,50.34,50.34,0,0,0,9.51,8c.56.37,1.11.74,1.7,1.1,1.79,1.11,3.67,2.14,5.62,3.1.66.32,1.34.66,2,1a83.86,83.86,0,0,0,27.8,7.07c3.05.25,6.13.36,9.2.33q5-.06,9.89-.55c6.89-.67,14.56-4.2,21.84-9,3.32-2.12,6.6-4.47,9.7-6.91l2.43-1.77c1.57-1.25,3.1-2.51,4.61-3.76l2.2-1.89c2.21-1.87,4.3-3.73,6.26-5.49l1.92-1.77,3.56-3.23,1.63-1.49c4.2-3.81,7.28-6.43,8.44-6.73l2.23-.56.85-.22,3.4-.86,7-1.77,14.55-3.78h0Zm-79.21-34.86c4.85-8.4,19.79-18,28-20.42,0,0,16.52,12-4.85,37.26-14.94,17.58-37.94,16.82-37.94,16.82-1.75-9.61,9.8-25.23,14.75-33.66Z" transform="translate(223 12)"/><path class="cls-4" d="M639.7,395.16c-13.2-4.8,23.09-73.29,36.39-96.13s56.09-114.16,56.09-114.16-31.35-8.41-47.84-6c0,0-53.2,87.46-56.11,90.09-6.6,6-47.87-9.63-65.19-3-22.32,8.49-49.51,45.65-57.76,72.09s-36.39,76.9-26.39,93.74,32.55,30.68,52.81,28.83c26.39-2.41,44.54-33.57,47.84-39.65,0,0,13,25,25.59,30.64,21.45,9.61,49.49-24,59.39-28.83,10.45-5.09,26.41-25.25,26.41-25.25V337.47S652.9,400,639.7,395.16Zm-41.24-56.53c-8.25,13.22-51.14,75.7-67.63,82.93,0,0,9.89-66.11,36.38-97.34s29.7-32.45,42.92-30-3.47,31.28-11.69,44.5Z" transform="translate(223 12)"/><path class="cls-4" d="M1164.47,269l-2,.14a24.15,24.15,0,0,0-5.24-.14c-3,.23-5.65.37-7.88.46a28.86,28.86,0,0,1-4.66-.46l-.27.51a37.3,37.3,0,0,1-7-.51s-73.5,136-99.77,151.2c-9.71-12.92,49.63-111.46,54.26-127.2,4.85-16.81,6.6-21.62,6.6-21.62s-34.67-12-40.44-10.23l-.29.48a18.84,18.84,0,0,0-7-.48S974,385.54,987.21,428.8c5.55,18.21,9.7,31.23,41.24,31.23a20.16,20.16,0,0,0,2.06-.12c1.65.09,3.37.12,5.22.12,9,0,18.58-7.22,25.35-13.74-4.49,22.82-15.19,76.07-17.78,79.85-3.3,4.8,13.12,18,29.69,18a5.94,5.94,0,0,0,2.16-.43,34.9,34.9,0,0,0,5.12.43c13.22,0,18.17-44.47,23.12-61.29s75.9-185.06,89.1-201.88C1192.51,281,1179.32,267.79,1164.47,269Z" transform="translate(223 12)"/><path class="cls-4" d="M991.19,269l-2,.14a24.15,24.15,0,0,0-5.24-.14c-3,.23-5.63.37-7.88.46a28.61,28.61,0,0,1-4.64-.46l-.29.51a37,37,0,0,1-7-.51s-73.52,136-99.8,151.2C854.61,407.28,914,308.74,918.58,293c4.85-16.81,6.6-21.62,6.6-21.62s-34.64-12-40.42-10.23c0,0,0,.18-.29.48a18.8,18.8,0,0,0-7-.48,784.07,784.07,0,0,0-46.34,88.67v-.34s-16.49,30-21.44,33.65S758.54,426.4,737.08,430s-29.7-3.53-31.35-19.24,21.45-46.86,21.45-46.86,24.77,7.22,38,3.62,32.61-4.91,51.17-42.06c13.19-26.5-4.86-43.27-29.72-50.48s-31.34-6-31.34-6c-16.52,2.4-51.87,12.36-78.38,82.3-13.23,34.86-8.28,73.32,0,85.33s32.16,27,68.48,23.42c24.52-2.44,57.73-40.84,62.68-42l4.42-1.11A40,40,0,0,0,814,428.8C819.53,447,823.68,460,855.22,460a17.66,17.66,0,0,0,2.06-.12c1.65.09,3.4.12,5.21.12,9,0,18.59-7.22,25.38-13.74-4.51,22.82-15.21,76.07-17.81,79.85-3.3,4.8,13.13,18,29.72,18a6.16,6.16,0,0,0,2.16-.43,34.9,34.9,0,0,0,5.12.43c13.19,0,18.14-44.47,23.09-61.29s75.91-185.06,89.13-201.88C1019.26,281,1006,267.79,991.19,269ZM751.92,314.64c4.85-8.4,19.8-18,28.05-20.42,0,0,16.49,12-4.86,37.26-14.94,17.58-38,16.82-38,16.82C735.4,338.69,747,323.07,751.92,314.64Z" transform="translate(223 12)"/></svg>