<svg id="Layer_1" data-name="Layer 1" xmlns="http://www.w3.org/2000/svg" viewBox="0 0 950.51 406.16"><defs><style>.cls-1{fill:#cccd33;}.cls-2{fill:#a21422;}.cls-3{fill:#016736;}.cls-4{fill:#006835;}</style></defs><path class="cls-1" d="M158.06,233.94c-4.29-7.92-44.83-13.45-85.71-.78S5.16,272.78,10.08,279.78c4.23,6,44.84,13.44,85.7.79S161.8,240.85,158.06,233.94Z" transform="translate(-9.49 -63)"/><path class="cls-2" d="M321.15,63.22c-8.14-2.31-44.89,13.32-65.08,44.16s-16.56,64.42-8,67.59c9.77,3.71,44.89-13.31,65.16-44.16S330.7,65.92,321.15,63.22Z" transform="translate(-9.49 -63)"/><path class="cls-3" d="M164,118.62C142,88.55,104.33,72,96.32,76.94c-6.88,4.23-10,37.14,12,67.2s59.59,45.67,67.66,41.68C185.21,181.27,186,148.69,164,118.62Z" transform="translate(-9.49 -63)"/><path class="cls-4" d="M397.1,213.79l-12.19-.87s-17.74,57-27.69,74.59-52.13,88.64-56.51,91.27-4.43,9.65-11.08,5.27,23.26-112.33,27.69-124.63,5.54-28.07,5.54-28.07L304,219.93H292.94s-18.85,44.76-26.6,60.56-48.76,91.28-62,100.05-13.3,3.51-12.19-13.17,37.67-117.6,43.22-127.25,12.19-20.19,12.19-21.93-27.7-14.91-27.7-14.91l-8.31-.44C207.07,207.23,146.13,345,155,381c0,0,12.19,26.51,47.65,27.2,22.71.43,58.17-81.18,58.17-81.18a50.83,50.83,0,0,1,0,20.19c-2.21,11.41-7.75,32.47,8.87,45.63s41,19.36,55.38,3.51,85.33-135.15,89.76-167.61Z" transform="translate(-9.49 -63)"/><path class="cls-4" d="M494.61,327l-.28.54c-.11.25-.27.54-.45.92s-.64,1.22-1.05,2l-.89,1.7c-.47.91-1,1.9-1.63,2.93l-1.14,2.12c-.39.72-.8,1.44-1.21,2.18-3,5.47-6.29,10.94-7.83,12.18-.64.5-2.28,2-4.61,4l-1.71,1.48-1.4,1.23-2.09,1.86-1.63,1.29c-1.33,1.12-2.75,2.3-4.22,3.5-.58.49-1.19,1-1.81,1.49-.89.73-1.82,1.47-2.75,2.2L458,370.13c-1.27,1-2.56,2-3.85,2.91l-1.92,1.42q-2.44,1.8-4.89,3.42c-.79.54-1.62,1.06-2.39,1.56l-.78.49c-1.11.69-2.19,1.29-3.26,1.92a34.22,34.22,0,0,1-9.56,3.88,36.12,36.12,0,0,1-7.2.65,19.1,19.1,0,0,1-3.85-.45,14.46,14.46,0,0,1-2.62-.9,11,11,0,0,1-3.62-2.72,13.78,13.78,0,0,1-2.23-3.73,20.52,20.52,0,0,1-.91-2.92,39,39,0,0,1-.64-4v-1.1h0a11.81,11.81,0,0,1,.15-2.26,32.66,32.66,0,0,1,1.22-5.38c.44-1.38,1-2.8,1.53-4.23,1-2.37,2.09-4.76,3.26-7,.46-.92.93-1.81,1.4-2.67.23-.44.48-.87.7-1.29,1.39-2.52,2.74-4.76,3.82-6.45l.5-.83c1.16-1.83,1.91-2.93,1.91-2.93a86,86,0,0,0,8.68,2.17l1.5.28,1.25.21a50.16,50.16,0,0,0,8.41.71,20.8,20.8,0,0,0,5.63-.72A90.47,90.47,0,0,0,460.35,337c7.41-3.07,16-9.52,24.29-27.61,3.26-7.25,3.68-13.5,2-18.76-.15-.44-.31-.88-.47-1.29a21.17,21.17,0,0,0-1.92-3.64,26.13,26.13,0,0,0-5.75-6.17c-.77-.6-1.63-1.18-2.4-1.72a40.58,40.58,0,0,0-5.39-3,52,52,0,0,0-6-2.3,126.07,126.07,0,0,0-14-3.7l-1.49-.27a18.39,18.39,0,0,0-5.59-.41c-1,.15-2.19.37-3.44.65a43.63,43.63,0,0,0-7,2.29,48.76,48.76,0,0,0-13.4,8.59,69.58,69.58,0,0,0-5.44,5.42,85.16,85.16,0,0,0-7.38,9.57c-.61.93-1.22,1.88-1.84,2.86q-1.83,3-3.65,6.34c-1.22,2.26-2.41,4.64-3.6,7.2-2.38,5.09-4.69,10.8-6.93,17.18a96,96,0,0,0-3.76,14.45c-.15.8-.29,1.6-.41,2.4-.26,1.6-.47,3.19-.63,4.76-.26,2.36-.46,4.7-.55,7,0,1.52-.12,3-.12,4.49v4.34l.1,2.09c.08,1.38.19,2.72.32,4a13.59,13.59,0,0,0,.22,1.92c.14,1.29.32,2.48.53,3.65.1.58.2,1.15.31,1.72a52.68,52.68,0,0,0,1.53,6.05l.44,1.29c.3.83.62,1.59.95,2.28s.67,1.29,1,1.87a25.93,25.93,0,0,0,1.82,2.52,34.89,34.89,0,0,0,6.39,5.87c.37.27.75.54,1.14.8q1.81,1.21,3.78,2.27c.44.23.9.48,1.37.7a52.68,52.68,0,0,0,18.67,5.16,57.65,57.65,0,0,0,6.17.24q3.33,0,6.65-.4c4.62-.49,9.77-3.07,14.66-6.54,2.23-1.55,4.43-3.26,6.51-5l1.63-1.29c1.06-.92,2.09-1.83,3.1-2.75l1.48-1.38c1.48-1.37,2.88-2.72,4.2-4l1.29-1.29,2.39-2.36,1.1-1.09c2.81-2.78,4.88-4.69,5.66-4.91l1.5-.42.57-.15,2.28-.63,4.7-1.29,9.77-2.76h0Zm-53.19-25.45c3.26-6.15,13.29-13.16,18.83-14.92,0,0,11.1,8.77-3.25,27.21-10,12.84-25.48,12.28-25.48,12.28-1.18-7,6.58-18.42,9.9-24.57Z" transform="translate(-9.49 -63)"/><path class="cls-4" d="M588.8,360.35c-8.86-3.51,15.51-53.53,24.43-70.21s37.67-83.37,37.67-83.37-21-6.14-32.13-4.38c0,0-35.72,63.87-37.68,65.79-4.43,4.39-32.14-7-43.77-2.19-15,6.21-33.25,33.34-38.78,52.65s-24.44,56.16-17.73,68.45,21.86,22.41,35.46,21.06c17.73-1.76,29.91-24.51,32.13-28.95,0,0,8.73,18.25,17.18,22.37,14.41,7,33.24-17.55,39.88-21.06,7-3.71,17.74-18.43,17.74-18.43V318.21S597.66,363.86,588.8,360.35Zm-27.69-41.28c-5.54,9.65-34.34,55.28-45.42,60.55,0,0,6.64-48.27,24.43-71.08s19.94-23.7,28.82-21.93-2.33,22.84-7.85,32.49Z" transform="translate(-9.49 -63)"/><path class="cls-4" d="M941.18,268.21l-1.36.1a15.35,15.35,0,0,0-3.52-.1c-2,.17-3.8.27-5.3.33a17.12,17.12,0,0,1-3.12-.33l-.18.37a23.1,23.1,0,0,1-4.71-.37s-49.36,99.34-67,110.42c-6.52-9.43,33.33-81.39,36.44-92.89,3.26-12.28,4.43-15.79,4.43-15.79s-23.28-8.78-27.16-7.47l-.19.35a11.76,11.76,0,0,0-4.69-.35s-51.53,90.84-42.67,122.43c3.73,13.3,6.52,22.81,27.7,22.81a10.66,10.66,0,0,0,1.38-.09c1.11.07,2.27.09,3.5.09,6.08,0,12.48-5.27,17-10-3,16.67-10.2,55.56-11.94,58.32-2.22,3.51,8.81,13.16,19.94,13.16a3.87,3.87,0,0,0,1.44-.31,23.39,23.39,0,0,0,3.44.31c8.88,0,12.2-32.48,15.53-44.76S951.14,289.25,960,277C960,277,951.15,267.33,941.18,268.21Z" transform="translate(-9.49 -63)"/><path class="cls-4" d="M824.83,268.21l-1.37.1a15.35,15.35,0,0,0-3.52-.1c-2,.17-3.78.27-5.3.33a17,17,0,0,1-3.11-.33l-.19.37a22.22,22.22,0,0,1-4.69-.37s-49.38,99.34-67,110.42c-6.52-9.43,33.33-81.39,36.44-92.89,3.26-12.28,4.43-15.79,4.43-15.79s-23.26-8.78-27.14-7.47a.63.63,0,0,1-.19.35,11.81,11.81,0,0,0-4.7-.35,592.53,592.53,0,0,0-31.11,64.75V327s-11.08,21.93-14.4,24.57-34.36,31.6-48.77,34.23-19.94-2.58-21.05-14.05,14.4-34.23,14.4-34.23,16.63,5.28,25.49,2.65,21.9-3.59,34.36-30.72c8.86-19.35-3.26-31.59-20-36.86s-21-4.38-21-4.38c-11.1,1.75-34.83,9-52.64,60.1-8.87,25.46-5.55,53.54,0,62.31s21.61,19.74,46,17.11c16.47-1.78,38.77-29.83,42.1-30.7l3-.82a31.71,31.71,0,0,0,1,8.71c3.73,13.3,6.51,22.81,27.69,22.81a10.54,10.54,0,0,0,1.38-.09c1.11.07,2.28.09,3.51.09,6.07,0,12.47-5.28,17-10-3,16.67-10.22,55.56-12,58.32-2.22,3.51,8.81,13.16,20,13.16a3.88,3.88,0,0,0,1.45-.31,23.27,23.27,0,0,0,3.44.31c8.86,0,12.19-32.48,15.51-44.76s51-135.15,59.85-147.43C843.67,277,834.79,267.33,824.83,268.21ZM664.16,301.55c3.25-6.15,13.29-13.16,18.83-14.92,0,0,11.07,8.77-3.26,27.21-10,12.84-25.49,12.28-25.49,12.28C653.06,319.1,660.83,307.7,664.16,301.55Z" transform="translate(-9.49 -63)"/></svg>