<svg id="Layer_1" data-name="Layer 1" xmlns="http://www.w3.org/2000/svg" viewBox="0 0 2497.49 1253.84"><defs><style>.cls-1{fill:#cccd33;}.cls-2{fill:#a21422;}.cls-3{fill:#016736;}.cls-4{fill:#006835;}</style></defs><path class="cls-1" d="M-373.63,166.88c-11.26-24.46-117.8-41.54-225.19-2.43S-775.38,286.76-762.45,308.38c11.13,18.6,117.83,41.5,225.18,2.43S-363.79,188.18-373.63,166.88Z" transform="translate(764 360.84)"/><path class="cls-2" d="M54.9-360.15c-21.4-7.13-118,41.1-171,136.32S-159.62-25-137.11-15.17c25.68,11.43,118-41.1,171.21-136.33S80-351.83,54.9-360.15Z" transform="translate(764 360.84)"/><path class="cls-3" d="M-358.14-189.14C-415.92-282-514.8-333-535.86-317.82c-18.06,13.07-26.23,114.66,31.55,207.46s156.57,141,177.76,128.68C-302.28,4.26-300.31-96.3-358.14-189.14Z" transform="translate(764 360.84)"/><path class="cls-4" d="M254.45,104.67l-32-2.71s-46.61,176.11-72.76,230.28S12.7,605.89,1.19,614s-11.65,29.79-29.11,16.25S33.2,283.49,44.85,245.53,59.4,158.87,59.4,158.87L9.92,123.62H-19.23s-49.52,138.16-69.9,187-128.1,281.78-163,308.86-34.93,10.83-32-40.66,99-363,113.56-392.82,32-62.33,32-67.7-72.76-46-72.76-46l-21.83-1.36c-11.64,13.54-171.77,438.9-148.48,550,0,0,32,81.85,125.2,84,59.66,1.35,152.84-250.59,152.84-250.59a183.73,183.73,0,0,1,0,62.33c-5.82,35.2-20.37,100.24,23.29,140.86S27.38,717.12,65.18,668.22,289.38,251,301,150.79Z" transform="translate(764 360.84)"/><path class="cls-4" d="M510.66,454.15l-.72,1.67c-.3.76-.73,1.67-1.2,2.83s-1.67,3.78-2.74,6.21l-2.35,5.26c-1.25,2.79-2.62,5.85-4.29,9l-3,6.53c-1,2.23-2.1,4.46-3.17,6.73-7.92,16.89-16.52,33.77-20.59,37.6-1.67,1.55-6,6.05-12.11,12.38L456,547l-3.68,3.79-5.48,5.73-4.28,4c-3.51,3.46-7.24,7.12-11.09,10.83-1.54,1.51-3.12,3.06-4.75,4.58-2.35,2.27-4.79,4.54-7.23,6.81l-4.93,4.58c-3.34,3-6.72,6.05-10.1,9l-5.05,4.38q-6.42,5.55-12.84,10.55c-2.1,1.68-4.28,3.27-6.29,4.82l-2.06,1.52c-2.91,2.11-5.73,4-8.56,5.93a82.25,82.25,0,0,1-25.12,12,80.71,80.71,0,0,1-18.92,2,44,44,0,0,1-10.1-1.39,33.94,33.94,0,0,1-6.89-2.79,29.26,29.26,0,0,1-9.5-8.4,43.61,43.61,0,0,1-5.87-11.51,70.81,70.81,0,0,1-2.4-9q-1.06-5.68-1.66-12.3v-3.39h0a44.11,44.11,0,0,1,.38-7,111.84,111.84,0,0,1,3.21-16.6c1.16-4.27,2.53-8.65,4-13.07,2.53-7.33,5.48-14.69,8.56-21.74,1.2-2.83,2.44-5.58,3.69-8.25.59-1.35,1.24-2.67,1.84-4,3.63-7.77,7.19-14.7,10-19.91l1.33-2.55c3-5.66,5-9,5-9a202.34,202.34,0,0,0,22.81,6.69l3.94.87,3.29.64A112.12,112.12,0,0,0,379.39,497a46.91,46.91,0,0,0,14.81-2.23,211.68,211.68,0,0,0,26.45-9.6c19.48-9.48,42-29.39,63.82-85.23,8.56-22.38,9.67-41.66,5.18-57.91-.39-1.35-.81-2.7-1.24-4a67.6,67.6,0,0,0-5.05-11.23,76.11,76.11,0,0,0-15.11-19c-2-1.87-4.28-3.66-6.29-5.33a106.51,106.51,0,0,0-14.17-9.16A123.16,123.16,0,0,0,432,286.16a292.38,292.38,0,0,0-36.68-11.43l-3.94-.84a41.49,41.49,0,0,0-14.68-1.27c-2.74.47-5.74,1.15-9,2a100.49,100.49,0,0,0-18.27,7.05,128.07,128.07,0,0,0-35.23,26.52A198.49,198.49,0,0,0,299.91,325a262.17,262.17,0,0,0-19.39,29.55q-2.38,4.31-4.84,8.84-4.8,9.17-9.59,19.56c-3.21,7-6.33,14.33-9.46,22.22-6.25,15.73-12.32,33.34-18.19,53.05a337.2,337.2,0,0,0-9.89,44.61c-.38,2.47-.77,4.93-1.07,7.4q-1,7.41-1.67,14.7c-.68,7.29-1.19,14.5-1.45,21.55,0,4.7-.3,9.32-.3,13.86v13.38l.26,6.45c.21,4.26.51,8.4.85,12.43a53.12,53.12,0,0,0,.56,5.93c.38,4,.86,7.65,1.41,11.27.26,1.79.52,3.55.81,5.3a182.83,182.83,0,0,0,4,18.68c.38,1.35.77,2.7,1.15,4,.77,2.55,1.63,4.9,2.49,7s1.75,4,2.65,5.77a78.72,78.72,0,0,0,4.79,7.77,99.89,99.89,0,0,0,16.78,18.12c1,.84,2,1.67,3,2.47a114.33,114.33,0,0,0,9.93,7c1.15.72,2.35,1.47,3.59,2.15A122.92,122.92,0,0,0,325.42,704a135.09,135.09,0,0,0,16.22.76,156.78,156.78,0,0,0,17.46-1.24c12.16-1.51,25.68-9.48,38.52-20.19a224.85,224.85,0,0,0,17.12-15.57l4.28-4c2.79-2.83,5.48-5.66,8.14-8.49l3.89-4.26c3.9-4.22,7.58-8.4,11.05-12.38l3.38-4,6.29-7.29,2.87-3.34c7.4-8.6,12.84-14.5,14.89-15.18l3.94-1.27,1.5-.48,6-2,12.33-4L519,592.63h0ZM370.91,375.57c8.57-19,34.93-40.62,49.48-46,0,0,29.15,27.08-8.56,84-26.36,39.63-66.94,37.92-66.94,37.92-3.08-21.67,17.29-56.87,26-75.87Z" transform="translate(764 360.84)"/><path class="cls-4" d="M758.15,557.1c-23.29-10.83,40.75-165.24,64.2-216.74S921.31,83,921.31,83,866,64,836.91,69.46c0,0-93.87,197.18-99,203.12-11.64,13.54-84.45-21.71-115-6.77C583.51,285,535.53,368.72,521,428.34s-64.2,173.37-46.57,211.32,57.44,69.18,93.18,65c46.57-5.42,78.59-75.67,84.41-89.37,0,0,22.94,56.35,45.16,69.06,37.83,21.66,87.31-54.17,104.78-65,18.44-11.47,46.61-56.91,46.61-56.91V427S781.43,567.93,758.15,557.1ZM685.38,429.65c-14.55,29.79-90.22,170.66-119.33,187,0,0,17.46-149,64.2-219.44S682.65,324,706,329.45,699.85,400,685.34,429.77Z" transform="translate(764 360.84)"/><path class="cls-4" d="M1684.05,272.66l-3.59.32a33.73,33.73,0,0,0-9.25-.32c-5.35.51-10,.83-13.91,1a39.86,39.86,0,0,1-8.22-1l-.47,1.15a51.33,51.33,0,0,1-12.37-1.15s-129.69,306.66-176,340.87c-17.12-29.11,87.58-251.26,95.75-286.75,8.56-37.91,11.65-48.75,11.65-48.75s-61.17-27.12-71.36-23.06l-.51,1.08a26.16,26.16,0,0,0-12.33-1.08s-135.38,280.42-112.1,378c9.81,41.06,17.12,70.41,72.77,70.41a27.73,27.73,0,0,0,3.64-.27c2.91.19,6,.27,9.2.27,16,0,32.79-16.28,44.73-31-7.92,51.46-26.8,171.49-31.38,180-5.82,10.83,23.16,40.62,52.39,40.62a8.47,8.47,0,0,0,3.81-1,48.91,48.91,0,0,0,9,1c23.33,0,32.06-100.24,40.79-138.16S1710.2,337.61,1733.49,299.7C1733.53,299.74,1710.25,270,1684.05,272.66Z" transform="translate(764 360.84)"/><path class="cls-4" d="M1378.31,272.66l-3.59.32a33.73,33.73,0,0,0-9.25-.32c-5.35.51-9.93.83-13.91,1a39.3,39.3,0,0,1-8.17-1l-.52,1.15a50.92,50.92,0,0,1-12.32-1.15s-129.74,306.66-176.09,340.87c-17.12-29.11,87.57-251.26,95.75-286.75,8.56-37.91,11.64-48.75,11.64-48.75s-61.12-27.12-71.31-23.06a2.08,2.08,0,0,1-.51,1.08A26.17,26.17,0,0,0,1177.7,255,1980.43,1980.43,0,0,0,1096,454.86v-.75s-29.11,67.7-37.84,75.87S967.84,627.51,930,635.64s-52.39-8-55.3-43.37,37.83-105.66,37.83-105.66,43.71,16.29,67,8.16,57.53-11.07,90.27-94.83c23.29-59.74-8.56-97.53-52.43-113.78S962,272.62,962,272.62c-29.15,5.41-91.51,27.88-138.3,185.55-23.32,78.58-14.59,165.28,0,192.36s56.76,60.94,120.83,52.81c43.28-5.49,101.87-92.08,110.61-94.78l7.79-2.51a114.21,114.21,0,0,0,2.69,26.88c9.8,41.06,17.12,70.41,72.77,70.41a27.58,27.58,0,0,0,3.63-.27c2.91.19,6,.27,9.21.27,16,0,32.78-16.28,44.77-31-8,51.46-26.84,171.49-31.42,180C1158.78,863.21,1187.76,893,1217,893a8.6,8.6,0,0,0,3.81-1,48.93,48.93,0,0,0,9,1c23.28,0,32-100.24,40.74-138.16s133.93-417.23,157.26-455.14C1427.84,299.74,1404.51,270,1378.31,272.66ZM956.15,375.57c8.56-19,34.93-40.62,49.48-46,0,0,29.11,27.08-8.56,84-26.36,39.63-67,37.92-67,37.92C927,429.77,947.42,394.57,956.15,375.57Z" transform="translate(764 360.84)"/></svg>